PathFileType	4	(x/y/z)	TRC_MarkerData\Passive\Passive_Pref0005.trc
DataRate	CameraRate	NumFrames	NumMarkers	Units	OrigDataRate	OrigDataStartFrame	OrigNumFrames
240	240	10	50	mm	240	40	313
Frame#	Time	R_AC			L_AC			HEAD			STERN			C7			L_IC			R_IC			L_ASIS			R_ASIS			L_GT			R_GT			L_PSIS			R_PSIS			SACRAL			L_LAT_KNEE			L_MED_KNEE			R_LAT_KNEE			R_MED_KNEE			L_LAT_ANK			L_MED_ANK			R_LAT_ANK			R_MED_ANK			L_THIGH_PROX_POST			L_THIGH_PROX_ANT			L_THIGH_DIST_ANT			L_THIGH_DIST_POST			R_THIGH_PROX_POST			R_THIGH_PROX_ANT			R_THIGH_DIST_ANT			R_THIGH_DIST_POST			L_SHANK_PROX_POST			L_SHANK_PROX_ANT			L_SHANK_DIST_ANT			L_SHANK_DIST_POST			R_SHANK_PROX_POST			R_SHANK_PROX_ANT			R_SHANK_DIST_ANT			R_SHANK_DIST_POST			L_HEEL_LAT			L_HEEL_SUP			L_HEEL_MED			R_HEEL_LAT			R_HEEL_SUP			R_HEEL_MED			L_1ST_MET			L_5TH_MET			L_TOE			R_1ST_MET			R_5TH_MET			R_TOE			
		X1	Y1	Z1	X2	Y2	Z2	X3	Y3	Z3	X4	Y4	Z4	X5	Y5	Z5	X6	Y6	Z6	X7	Y7	Z7	X8	Y8	Z8	X9	Y9	Z9	X10	Y10	Z10	X11	Y11	Z11	X12	Y12	Z12	X13	Y13	Z13	X14	Y14	Z14	X15	Y15	Z15	X16	Y16	Z16	X17	Y17	Z17	X18	Y18	Z18	X19	Y19	Z19	X20	Y20	Z20	X21	Y21	Z21	X22	Y22	Z22	X23	Y23	Z23	X24	Y24	Z24	X25	Y25	Z25	X26	Y26	Z26	X27	Y27	Z27	X28	Y28	Z28	X29	Y29	Z29	X30	Y30	Z30	X31	Y31	Z31	X32	Y32	Z32	X33	Y33	Z33	X34	Y34	Z34	X35	Y35	Z35	X36	Y36	Z36	X37	Y37	Z37	X38	Y38	Z38	X39	Y39	Z39	X40	Y40	Z40	X41	Y41	Z41	X42	Y42	Z42	X43	Y43	Z43	X44	Y44	Z44	X45	Y45	Z45	X46	Y46	Z46	X47	Y47	Z47	X48	Y48	Z48	X49	Y49	Z49	X50	Y50	Z50	

40	0.16302	-652.02	1505.3	470.03	-695.72	1518.4	64.063	-647.22	1836.8	279.56	-596.4	1480.4	266.19	-735.64	1552.7	271.13	NaN	NaN	NaN	NaN	NaN	NaN	-614.92	1019.9	159.56	-621.16	1022.7	428.42	-700.33	936.45	105.07	-723.95	949.61	468.49	-825.62	1032.9	226.8	-824.93	1032.8	335.14	-833.78	997.6	280.71	-553.69	566.42	156.39	-563.83	579.19	295.09	-803	540.29	468.33	-779.44	520.76	335.69	-523.43	112.91	177.27	-536.26	109.95	266.17	-1163.6	237.84	416.67	-1104.6	226.26	328.95	-662.84	757.31	127.48	-597.88	769.46	123.78	-574.8	704.45	141.27	-637.02	687.12	138.32	-771.39	775.74	472.95	-703.94	766.73	479.28	-719.23	691.72	476.7	-787.63	703.46	466.57	-564.46	463.92	174.74	-502.61	475.24	185.02	-495.09	426.2	193.22	-550.88	417.22	173.11	-957.15	435.07	469.79	-906.33	390.61	464.13	-959.97	340.21	450.48	-1011.6	384.86	453.52	-568.09	32.557	177.9	-588.04	58.592	207.68	-581.03	34.229	243.81	-1227.8	281.55	376.46	-1194.6	296.82	349.95	-1203.3	269.5	316.99	-365.6	63.512	299.85	-372.29	59.944	188.58	-318.22	86.897	273.61	-1119.3	81.286	334.36	-1161	86.518	436.97	-1101	45.11	376.87
41	0.1672	-646.77	1506.3	469.35	-689.82	1519.3	63.362	-641.79	1837.6	278.9	-591.05	1481.2	265.61	-730.22	1553.6	270.33	NaN	NaN	NaN	NaN	NaN	NaN	-609.74	1021	158.99	-616.02	1023.5	427.77	-695.29	937.6	104.55	-718.07	949.93	467.95	-820.37	1033.9	226.47	-819.74	1033.7	334.83	-828.55	998.58	280.33	-550.58	566.61	155.61	-560.59	579.63	294.28	-792.18	539.45	468.33	-768.63	520.06	335.56	-522.89	112.9	177.13	-535.7	110.14	266	-1155.1	241.43	416.53	-1096.3	228.56	328.82	-658.49	758.28	126.85	-593.6	770.09	123.18	-570.81	704.9	140.66	-633.23	688.01	137.61	-763.38	775.08	472.81	-695.77	766.84	478.87	-710.23	691.68	476.45	-778.81	702.6	466.58	-561.91	464.22	174.09	-500.02	475.17	184.34	-492.78	426.11	192.6	-548.62	417.42	172.53	-946.63	435.74	469.79	-896.25	390.76	464.02	-950.41	340.91	450.31	-1001.6	386.09	453.41	-567.98	32.655	177.9	-587.85	58.774	207.67	-580.9	34.433	243.81	-1218.7	285.92	376.07	-1185.2	300.53	349.51	-1194.4	273.17	316.71	-365.29	62.931	299.66	-372.06	59.247	188.4	-317.81	86.048	273.36	-1113	83.421	335.35	-1154.7	89.942	437.51	-1095.5	46.473	378
42	0.17138	-641.57	1507.3	468.69	-683.93	1520.2	62.68	-636.34	1838.4	278.26	-585.72	1482	265.07	-724.83	1554.5	269.56	NaN	NaN	NaN	NaN	NaN	NaN	-604.59	1022	158.45	-610.95	1024.3	427.15	-690.27	938.76	104.05	-712.24	950.28	467.42	-815.11	1035	226.13	-814.58	1034.5	334.51	-823.37	999.53	279.94	-547.61	566.79	154.87	-557.5	580.04	293.5	-781.31	538.7	468.28	-757.81	519.49	335.35	-522.39	112.89	177	-535.17	110.32	265.83	-1146.4	244.96	416.33	-1087.8	230.83	328.64	-654.19	759.24	126.21	-589.38	770.74	122.63	-566.9	705.33	140.1	-629.53	688.91	136.91	-755.38	774.47	472.66	-687.61	767.02	478.47	-701.22	691.71	476.18	-769.97	701.8	466.56	-559.47	464.5	173.46	-497.54	475.09	183.7	-490.57	426.02	192	-546.46	417.62	171.99	-936.01	436.43	469.72	-886.06	390.97	463.85	-940.71	341.65	450.08	-991.52	387.31	453.24	-567.87	32.748	177.9	-587.67	58.944	207.65	-580.77	34.628	243.8	-1209.5	290.05	375.6	-1175.6	304.04	348.98	-1185.3	276.6	316.35	-365.01	62.397	299.49	-371.84	58.601	188.24	-317.44	85.262	273.14	-1106.3	85.572	336.37	-1147.8	93.388	438.12	-1089.3	48.015	379.19
43	0.17556	-636.44	1508.3	468.06	-678.06	1521.1	62.02	-630.89	1839.3	277.62	-580.43	1482.8	264.55	-719.48	1555.5	268.79	NaN	NaN	NaN	NaN	NaN	NaN	-599.45	1023.1	157.94	-605.96	1025.2	426.56	-685.26	939.91	103.57	-706.47	950.65	466.92	-809.83	1036	225.78	-809.46	1035.3	334.17	-818.22	1000.5	279.52	-544.77	566.95	154.16	-554.55	580.43	292.75	-770.4	538.04	468.16	-746.99	519.06	335.08	-521.93	112.89	176.88	-534.68	110.5	265.68	-1137.4	248.4	416.07	-1079	233.06	328.41	-649.93	760.19	125.57	-585.21	771.39	122.14	-563.04	705.75	139.6	-625.91	689.81	136.23	-747.39	773.92	472.5	-679.45	767.26	478.07	-692.23	691.8	475.91	-761.13	701.07	466.51	-557.14	464.77	172.87	-495.18	475.02	183.09	-488.46	425.93	191.44	-544.4	417.81	171.47	-925.32	437.15	469.58	-875.78	391.24	463.62	-930.88	342.43	449.79	-981.28	388.55	453.03	-567.77	32.839	177.9	-587.5	59.104	207.63	-580.66	34.814	243.8	-1200.1	293.92	375.07	-1166	307.33	348.36	-1176.1	279.78	315.93	-364.75	61.907	299.34	-371.64	58.004	188.11	-317.09	84.533	272.94	-1099.1	87.727	337.4	-1140.4	96.829	438.81	-1082.6	49.721	380.43
44	0.17974	-631.37	1509.3	467.45	-672.22	1522	61.382	-625.42	1840.1	276.98	-575.17	1483.7	264.07	-714.16	1556.5	268.05	NaN	NaN	NaN	NaN	NaN	NaN	-594.34	1024.2	157.46	-601.04	1026.1	425.99	-680.27	941.06	103.1	-700.74	951.06	466.44	-804.55	1037	225.42	-804.37	1036.1	333.82	-813.1	1001.4	279.09	-542.05	567.11	153.48	-551.73	580.8	292.02	-759.47	537.47	467.98	-736.17	518.75	334.75	-521.5	112.9	176.76	-534.22	110.67	265.54	-1128.3	251.76	415.75	-1070.1	235.26	328.14	-645.71	761.14	124.93	-581.09	772.04	121.7	-559.26	706.16	139.13	-622.39	690.72	135.58	-739.41	773.43	472.32	-671.31	767.57	477.67	-683.25	691.98	475.62	-752.29	700.41	466.43	-554.91	465.03	172.3	-492.91	474.95	182.5	-486.45	425.85	190.9	-542.43	417.99	170.97	-914.56	437.9	469.38	-865.41	391.56	463.34	-920.93	343.24	449.44	-970.95	389.79	452.75	-567.67	32.926	177.91	-587.35	59.254	207.61	-580.55	34.991	243.79	-1190.7	297.52	374.47	-1156.4	310.41	347.66	-1166.9	282.69	315.47	-364.52	61.456	299.21	-371.46	57.451	187.99	-316.77	83.857	272.77	-1091.4	89.874	338.45	-1132.5	100.24	439.55	-1075.3	51.571	381.7
45	0.18392	-626.37	1510.3	466.87	-666.4	1522.9	60.766	-619.94	1841	276.36	-569.96	1484.5	263.6	-708.88	1557.4	267.32	NaN	NaN	NaN	NaN	NaN	NaN	-589.24	1025.3	157.01	-596.18	1027	425.45	-675.29	942.2	102.64	-695.06	951.5	465.98	-799.25	1037.9	225.05	-799.3	1036.8	333.46	-808.01	1002.2	278.65	-539.44	567.25	152.83	-549.04	581.14	291.32	-748.54	537.01	467.75	-725.36	518.58	334.36	-521.1	112.9	176.65	-533.79	110.84	265.4	-1119.1	255	415.38	-1061	237.41	327.83	-641.54	762.08	124.29	-577.03	772.69	121.31	-555.54	706.56	138.7	-618.95	691.63	134.95	-731.44	773.01	472.13	-663.19	767.95	477.28	-674.29	692.24	475.32	-743.46	699.83	466.31	-552.77	465.27	171.75	-490.74	474.89	181.95	-484.52	425.77	190.39	-540.54	418.16	170.5	-903.74	438.67	469.12	-854.95	391.95	463.01	-910.87	344.08	449.05	-960.53	391.03	452.43	-567.57	33.01	177.91	-587.21	59.396	207.6	-580.45	35.161	243.79	-1181.3	300.85	373.82	-1146.8	313.25	346.91	-1157.6	285.33	314.97	-364.3	61.041	299.1	-371.28	56.937	187.89	-316.48	83.23	272.62	-1083.3	92.002	339.49	-1124.1	103.6	440.35	-1067.4	53.54	383
46	0.1881	-621.43	1511.3	466.32	-660.61	1523.8	60.173	-614.46	1841.8	275.74	-564.77	1485.3	263.17	-703.63	1558.4	266.61	NaN	NaN	NaN	NaN	NaN	NaN	-584.17	1026.4	156.58	-591.38	1028	424.93	-670.34	943.33	102.2	-689.43	951.97	465.56	-793.95	1038.8	224.67	-794.26	1037.5	333.08	-802.95	1003.1	278.18	-536.94	567.39	152.21	-546.45	581.47	290.65	-737.6	536.66	467.47	-714.56	518.53	333.92	-520.73	112.91	176.55	-533.38	111.01	265.27	-1109.6	258.11	414.97	-1051.7	239.5	327.5	-637.42	763	123.66	-573.02	773.33	120.95	-551.89	706.95	138.3	-615.59	692.54	134.33	-723.51	772.66	471.92	-655.09	768.39	476.89	-665.36	692.57	475.02	-734.64	699.34	466.16	-550.72	465.5	171.23	-488.66	474.82	181.41	-482.67	425.69	189.89	-538.72	418.33	170.04	-892.88	439.48	468.79	-844.43	392.4	462.64	-900.71	344.95	448.62	-950.02	392.28	452.06	-567.47	33.093	177.92	-587.08	59.53	207.59	-580.35	35.323	243.79	-1171.8	303.89	373.14	-1137.1	315.86	346.12	-1148.2	287.7	314.45	-364.1	60.66	298.99	-371.12	56.459	187.8	-316.2	82.647	272.48	-1074.7	94.099	340.52	-1115.2	106.87	441.18	-1059	55.603	384.3
47	0.19228	-616.55	1512.4	465.79	-654.85	1524.7	59.603	-608.96	1842.7	275.13	-559.63	1486.1	262.77	-698.42	1559.4	265.91	NaN	NaN	NaN	NaN	NaN	NaN	-579.11	1027.5	156.17	-586.63	1028.9	424.43	-665.41	944.44	101.77	-683.85	952.46	465.15	-788.64	1039.7	224.29	-789.24	1038.1	332.69	-797.92	1003.9	277.7	-534.52	567.52	151.61	-543.97	581.79	289.99	-726.67	536.42	467.15	-703.78	518.61	333.44	-520.39	112.92	176.46	-532.99	111.18	265.15	-1100	261.08	414.52	-1042.2	241.52	327.13	-633.34	763.92	123.02	-569.07	773.96	120.62	-548.31	707.33	137.92	-612.3	693.45	133.74	-715.59	772.39	471.7	-647.03	768.91	476.5	-656.46	692.99	474.71	-725.84	698.92	465.98	-548.74	465.73	170.72	-486.65	474.76	180.89	-480.88	425.62	189.42	-536.96	418.49	169.6	-881.99	440.32	468.41	-833.85	392.9	462.23	-890.46	345.85	448.16	-939.45	393.52	451.64	-567.38	33.174	177.93	-586.96	59.657	207.58	-580.26	35.477	243.79	-1162.2	306.63	372.44	-1127.4	318.23	345.31	-1138.8	289.79	313.93	-363.92	60.307	298.9	-370.97	56.012	187.72	-315.95	82.103	272.35	-1065.6	96.152	341.53	-1105.8	110.04	442.03	-1049.9	57.732	385.59
48	0.19646	-611.73	1513.4	465.3	-649.13	1525.7	59.057	-603.45	1843.6	274.53	-554.52	1487	262.39	-693.25	1560.3	265.24	NaN	NaN	NaN	NaN	NaN	NaN	-574.06	1028.5	155.79	-581.93	1029.9	423.97	-660.5	945.54	101.36	-678.32	952.99	464.77	-783.32	1040.6	223.89	-784.25	1038.7	332.29	-792.91	1004.7	277.21	-532.18	567.65	151.03	-541.57	582.08	289.36	-715.77	536.28	466.78	-693.03	518.81	332.91	-520.07	112.94	176.38	-532.62	111.34	265.03	-1090.2	263.88	414.04	-1032.6	243.47	326.74	-629.31	764.82	122.4	-565.17	774.57	120.32	-544.79	707.7	137.56	-609.08	694.36	133.17	-707.7	772.18	471.46	-639	769.51	476.11	-647.59	693.5	474.41	-717.06	698.59	465.76	-546.82	465.94	170.23	-484.71	474.71	180.39	-479.16	425.55	188.97	-535.27	418.65	169.17	-871.06	441.18	467.98	-823.22	393.47	461.79	-880.12	346.78	447.67	-928.81	394.76	451.18	-567.29	33.253	177.93	-586.84	59.779	207.57	-580.17	35.625	243.79	-1152.6	309.08	371.73	-1117.6	320.36	344.49	-1129.3	291.62	313.4	-363.74	59.981	298.82	-370.83	55.593	187.65	-315.71	81.594	272.24	-1056.1	98.148	342.5	-1095.9	113.07	442.89	-1040.4	59.898	386.85
49	0.20064	-606.98	1514.4	464.83	-643.44	1526.6	58.535	-597.94	1844.5	273.94	-549.44	1487.8	262.04	-688.11	1561.3	264.59	NaN	NaN	NaN	NaN	NaN	NaN	-569.04	1029.6	155.41	-577.26	1030.9	423.52	-655.61	946.62	100.95	-672.82	953.55	464.41	-778	1041.5	223.49	-779.28	1039.3	331.88	-787.92	1005.5	276.7	-529.91	567.77	150.47	-539.25	582.37	288.74	-704.89	536.26	466.38	-682.31	519.13	332.36	-519.77	112.96	176.29	-532.26	111.5	264.92	-1080.3	266.51	413.55	-1022.8	245.34	326.33	-625.32	765.72	121.78	-561.32	775.15	120.04	-541.34	708.06	137.22	-605.91	695.25	132.62	-699.84	772.05	471.19	-631.02	770.17	475.73	-638.76	694.09	474.09	-708.31	698.34	465.51	-544.97	466.15	169.75	-482.83	474.65	179.91	-477.49	425.49	188.53	-533.63	418.81	168.76	-860.12	442.07	467.5	-812.53	394.09	461.33	-869.69	347.72	447.17	-918.12	395.98	450.69	-567.21	33.332	177.95	-586.73	59.896	207.56	-580.09	35.766	243.79	-1143	311.24	371.02	-1107.9	322.26	343.67	-1119.8	293.19	312.89	-363.58	59.677	298.74	-370.7	55.199	187.6	-315.48	81.117	272.14	-1046.1	100.08	343.42	-1085.6	115.96	443.73	-1030.3	62.073	388.06
